<svg xmlns="http://www.w3.org/2000/svg" viewBox="0 0 20 20" fill="none">
  <path
    d="M7.2 3.25c0-.28.22-.5.5-.5h2.06c.28 0 .5.22.5.5v1.05c0 .47.38.85.85.85h1.05c.28 0 .5.22.5.5v1.8c0 .19.11.36.28.44.17.08.37.06.52-.05l.72-.53a1.38 1.38 0 0 1 1.94.29l1.22 1.68c.16.22.11.53-.11.69l-.86.62a.85.85 0 0 0 0 1.38l.86.62c.22.16.27.47.11.69l-1.22 1.68a1.38 1.38 0 0 1-1.94.29l-.72-.53a.52.52 0 0 0-.52-.05.49.49 0 0 0-.28.44v1.8c0 .28-.22.5-.5.5h-1.9a.5.5 0 0 1-.5-.5v-1.16c0-.57-.46-1.03-1.03-1.03s-1.03.46-1.03 1.03v1.16a.5.5 0 0 1-.5.5H5.8a.5.5 0 0 1-.5-.5v-2.06c0-.28-.22-.5-.5-.5H3.75a.5.5 0 0 1-.5-.5v-2.06c0-.28.22-.5.5-.5H4.8c.28 0 .5-.22.5-.5V9.1c0-.28-.22-.5-.5-.5H3.75a.5.5 0 0 1-.5-.5V5.8c0-.28.22-.5.5-.5H5.8c.28 0 .5-.22.5-.5V3.25Z"
    stroke="#4E5968"
    stroke-width="1.35"
    stroke-linejoin="round"
  />
  <circle cx="10" cy="10" r="1.55" fill="#4E5968"/>
</svg>
